<svg xmlns="http://www.w3.org/2000/svg" xmlns:xlink="http://www.w3.org/1999/xlink" width="1000" zoomAndPan="magnify" viewBox="0 0 750 374.999991" height="500" preserveAspectRatio="xMidYMid meet" version="1.0"><defs><filter x="0%" y="0%" width="100%" height="100%" id="ae276432fc"><feColorMatrix values="0 0 0 0 1 0 0 0 0 1 0 0 0 0 1 0 0 0 1 0" color-interpolation-filters="sRGB"/></filter><g/><clipPath id="54b4bf5dcd"><rect x="0" width="622" y="0" height="267"/></clipPath><clipPath id="cd95a2d5ae"><path d="M 0.4375 0 L 493 0 L 493 375 L 0.4375 375 Z M 0.4375 0 " clip-rule="nonzero"/></clipPath><clipPath id="fdd7e2bc99"><path d="M 0.4375 0 L 493 0 L 493 375 L 0.4375 375 Z M 0.4375 0 " clip-rule="nonzero"/></clipPath><clipPath id="912fc9cddb"><path d="M 0.441406 0 L 493 0 L 493 375 L 0.441406 375 Z M 0.441406 0 " clip-rule="nonzero"/></clipPath><linearGradient x1="-106.667" gradientTransform="matrix(2.008971, 0, 0, 2.007884, 214.73073, 185.772614)" y1="36.5" x2="138.513342" gradientUnits="userSpaceOnUse" y2="36.5" id="5c80cdd350"><stop stop-opacity="1" stop-color="rgb(54.899597%, 32.159424%, 100%)" offset="0"/><stop stop-opacity="1" stop-color="rgb(54.899597%, 32.159424%, 100%)" offset="0.25"/><stop stop-opacity="1" stop-color="rgb(54.899597%, 32.159424%, 100%)" offset="0.375"/><stop stop-opacity="1" stop-color="rgb(54.776001%, 32.254028%, 99.862671%)" offset="0.4375"/><stop stop-opacity="1" stop-color="rgb(54.260254%, 32.655334%, 99.287415%)" offset="0.441406"/><stop stop-opacity="1" stop-color="rgb(53.868103%, 32.962036%, 98.851013%)" offset="0.445312"/><stop stop-opacity="1" stop-color="rgb(53.475952%, 33.267212%, 98.413086%)" offset="0.449219"/><stop stop-opacity="1" stop-color="rgb(53.083801%, 33.572388%, 97.975159%)" offset="0.453125"/><stop stop-opacity="1" stop-color="rgb(52.690125%, 33.877563%, 97.537231%)" offset="0.457031"/><stop stop-opacity="1" stop-color="rgb(52.297974%, 34.184265%, 97.10083%)" offset="0.460938"/><stop stop-opacity="1" stop-color="rgb(51.904297%, 34.489441%, 96.662903%)" offset="0.464844"/><stop stop-opacity="1" stop-color="rgb(51.512146%, 34.796143%, 96.224976%)" offset="0.46875"/><stop stop-opacity="1" stop-color="rgb(51.119995%, 35.101318%, 95.787048%)" offset="0.472656"/><stop stop-opacity="1" stop-color="rgb(50.727844%, 35.406494%, 95.350647%)" offset="0.476562"/><stop stop-opacity="1" stop-color="rgb(50.334167%, 35.71167%, 94.91272%)" offset="0.480469"/><stop stop-opacity="1" stop-color="rgb(49.942017%, 36.018372%, 94.474792%)" offset="0.484375"/><stop stop-opacity="1" stop-color="rgb(49.54834%, 36.323547%, 94.036865%)" offset="0.488281"/><stop stop-opacity="1" stop-color="rgb(49.156189%, 36.630249%, 93.600464%)" offset="0.492188"/><stop stop-opacity="1" stop-color="rgb(48.764038%, 36.935425%, 93.162537%)" offset="0.496094"/><stop stop-opacity="1" stop-color="rgb(48.371887%, 37.240601%, 92.724609%)" offset="0.5"/><stop stop-opacity="1" stop-color="rgb(47.97821%, 37.545776%, 92.286682%)" offset="0.503906"/><stop stop-opacity="1" stop-color="rgb(47.58606%, 37.852478%, 91.850281%)" offset="0.507812"/><stop stop-opacity="1" stop-color="rgb(47.193909%, 38.157654%, 91.412354%)" offset="0.511719"/><stop stop-opacity="1" stop-color="rgb(46.801758%, 38.46283%, 90.974426%)" offset="0.515625"/><stop stop-opacity="1" stop-color="rgb(46.408081%, 38.768005%, 90.536499%)" offset="0.519531"/><stop stop-opacity="1" stop-color="rgb(46.01593%, 39.074707%, 90.100098%)" offset="0.523438"/><stop stop-opacity="1" stop-color="rgb(45.622253%, 39.379883%, 89.66217%)" offset="0.527344"/><stop stop-opacity="1" stop-color="rgb(45.230103%, 39.686584%, 89.224243%)" offset="0.53125"/><stop stop-opacity="1" stop-color="rgb(44.837952%, 39.99176%, 88.786316%)" offset="0.535156"/><stop stop-opacity="1" stop-color="rgb(44.445801%, 40.296936%, 88.349915%)" offset="0.539062"/><stop stop-opacity="1" stop-color="rgb(44.052124%, 40.602112%, 87.911987%)" offset="0.542969"/><stop stop-opacity="1" stop-color="rgb(43.659973%, 40.908813%, 87.47406%)" offset="0.546875"/><stop stop-opacity="1" stop-color="rgb(43.267822%, 41.213989%, 87.036133%)" offset="0.550781"/><stop stop-opacity="1" stop-color="rgb(42.875671%, 41.520691%, 86.599731%)" offset="0.554688"/><stop stop-opacity="1" stop-color="rgb(42.481995%, 41.825867%, 86.161804%)" offset="0.558594"/><stop stop-opacity="1" stop-color="rgb(42.089844%, 42.131042%, 85.723877%)" offset="0.5625"/><stop stop-opacity="1" stop-color="rgb(41.696167%, 42.436218%, 85.28595%)" offset="0.566406"/><stop stop-opacity="1" stop-color="rgb(41.304016%, 42.74292%, 84.849548%)" offset="0.570313"/><stop stop-opacity="1" stop-color="rgb(40.911865%, 43.048096%, 84.411621%)" offset="0.574219"/><stop stop-opacity="1" stop-color="rgb(40.519714%, 43.353271%, 83.97522%)" offset="0.578125"/><stop stop-opacity="1" stop-color="rgb(40.126038%, 43.658447%, 83.537292%)" offset="0.582031"/><stop stop-opacity="1" stop-color="rgb(39.733887%, 43.965149%, 83.099365%)" offset="0.585938"/><stop stop-opacity="1" stop-color="rgb(39.341736%, 44.270325%, 82.661438%)" offset="0.589844"/><stop stop-opacity="1" stop-color="rgb(38.949585%, 44.577026%, 82.225037%)" offset="0.59375"/><stop stop-opacity="1" stop-color="rgb(38.555908%, 44.882202%, 81.787109%)" offset="0.597656"/><stop stop-opacity="1" stop-color="rgb(38.163757%, 45.187378%, 81.349182%)" offset="0.601563"/><stop stop-opacity="1" stop-color="rgb(37.770081%, 45.492554%, 80.911255%)" offset="0.605469"/><stop stop-opacity="1" stop-color="rgb(37.37793%, 45.799255%, 80.474854%)" offset="0.609375"/><stop stop-opacity="1" stop-color="rgb(36.985779%, 46.104431%, 80.036926%)" offset="0.613281"/><stop stop-opacity="1" stop-color="rgb(36.593628%, 46.411133%, 79.598999%)" offset="0.617188"/><stop stop-opacity="1" stop-color="rgb(36.199951%, 46.716309%, 79.161072%)" offset="0.621094"/><stop stop-opacity="1" stop-color="rgb(35.8078%, 47.021484%, 78.72467%)" offset="0.625"/><stop stop-opacity="1" stop-color="rgb(35.415649%, 47.32666%, 78.286743%)" offset="0.628906"/><stop stop-opacity="1" stop-color="rgb(35.023499%, 47.633362%, 77.848816%)" offset="0.632813"/><stop stop-opacity="1" stop-color="rgb(34.629822%, 47.938538%, 77.410889%)" offset="0.636719"/><stop stop-opacity="1" stop-color="rgb(34.237671%, 48.243713%, 76.974487%)" offset="0.640625"/><stop stop-opacity="1" stop-color="rgb(33.843994%, 48.548889%, 76.53656%)" offset="0.644531"/><stop stop-opacity="1" stop-color="rgb(33.451843%, 48.855591%, 76.098633%)" offset="0.648438"/><stop stop-opacity="1" stop-color="rgb(33.059692%, 49.160767%, 75.660706%)" offset="0.652344"/><stop stop-opacity="1" stop-color="rgb(32.667542%, 49.467468%, 75.224304%)" offset="0.65625"/><stop stop-opacity="1" stop-color="rgb(32.273865%, 49.772644%, 74.786377%)" offset="0.660156"/><stop stop-opacity="1" stop-color="rgb(31.881714%, 50.07782%, 74.34845%)" offset="0.664062"/><stop stop-opacity="1" stop-color="rgb(31.489563%, 50.382996%, 73.910522%)" offset="0.667969"/><stop stop-opacity="1" stop-color="rgb(31.097412%, 50.689697%, 73.474121%)" offset="0.671875"/><stop stop-opacity="1" stop-color="rgb(30.703735%, 50.994873%, 73.036194%)" offset="0.675781"/><stop stop-opacity="1" stop-color="rgb(30.311584%, 51.301575%, 72.598267%)" offset="0.679688"/><stop stop-opacity="1" stop-color="rgb(29.917908%, 51.60675%, 72.160339%)" offset="0.683594"/><stop stop-opacity="1" stop-color="rgb(29.525757%, 51.911926%, 71.723938%)" offset="0.6875"/><stop stop-opacity="1" stop-color="rgb(29.133606%, 52.217102%, 71.286011%)" offset="0.691406"/><stop stop-opacity="1" stop-color="rgb(28.741455%, 52.523804%, 70.848083%)" offset="0.695313"/><stop stop-opacity="1" stop-color="rgb(28.347778%, 52.828979%, 70.410156%)" offset="0.699219"/><stop stop-opacity="1" stop-color="rgb(27.955627%, 53.134155%, 69.973755%)" offset="0.703125"/><stop stop-opacity="1" stop-color="rgb(27.561951%, 53.439331%, 69.535828%)" offset="0.707031"/><stop stop-opacity="1" stop-color="rgb(27.1698%, 53.746033%, 69.0979%)" offset="0.710938"/><stop stop-opacity="1" stop-color="rgb(26.777649%, 54.051208%, 68.659973%)" offset="0.714844"/><stop stop-opacity="1" stop-color="rgb(26.385498%, 54.35791%, 68.223572%)" offset="0.71875"/><stop stop-opacity="1" stop-color="rgb(25.991821%, 54.663086%, 67.785645%)" offset="0.722656"/><stop stop-opacity="1" stop-color="rgb(25.59967%, 54.968262%, 67.349243%)" offset="0.726563"/><stop stop-opacity="1" stop-color="rgb(25.20752%, 55.273438%, 66.911316%)" offset="0.730469"/><stop stop-opacity="1" stop-color="rgb(24.815369%, 55.580139%, 66.473389%)" offset="0.734375"/><stop stop-opacity="1" stop-color="rgb(24.421692%, 55.885315%, 66.035461%)" offset="0.738281"/><stop stop-opacity="1" stop-color="rgb(24.029541%, 56.192017%, 65.59906%)" offset="0.742188"/><stop stop-opacity="1" stop-color="rgb(23.635864%, 56.497192%, 65.161133%)" offset="0.746094"/><stop stop-opacity="1" stop-color="rgb(23.243713%, 56.802368%, 64.723206%)" offset="0.75"/><stop stop-opacity="1" stop-color="rgb(22.851562%, 57.107544%, 64.285278%)" offset="0.753906"/><stop stop-opacity="1" stop-color="rgb(22.459412%, 57.414246%, 63.848877%)" offset="0.757813"/><stop stop-opacity="1" stop-color="rgb(22.065735%, 57.719421%, 63.41095%)" offset="0.761719"/><stop stop-opacity="1" stop-color="rgb(21.673584%, 58.024597%, 62.973022%)" offset="0.765625"/><stop stop-opacity="1" stop-color="rgb(21.281433%, 58.329773%, 62.535095%)" offset="0.769531"/><stop stop-opacity="1" stop-color="rgb(20.889282%, 58.636475%, 62.098694%)" offset="0.773438"/><stop stop-opacity="1" stop-color="rgb(20.495605%, 58.94165%, 61.660767%)" offset="0.777344"/><stop stop-opacity="1" stop-color="rgb(20.103455%, 59.248352%, 61.222839%)" offset="0.78125"/><stop stop-opacity="1" stop-color="rgb(19.709778%, 59.553528%, 60.784912%)" offset="0.785156"/><stop stop-opacity="1" stop-color="rgb(19.317627%, 59.858704%, 60.348511%)" offset="0.789062"/><stop stop-opacity="1" stop-color="rgb(18.925476%, 60.163879%, 59.910583%)" offset="0.792969"/><stop stop-opacity="1" stop-color="rgb(18.533325%, 60.470581%, 59.472656%)" offset="0.796875"/><stop stop-opacity="1" stop-color="rgb(18.139648%, 60.775757%, 59.034729%)" offset="0.800781"/><stop stop-opacity="1" stop-color="rgb(17.747498%, 61.082458%, 58.598328%)" offset="0.804688"/><stop stop-opacity="1" stop-color="rgb(17.355347%, 61.387634%, 58.1604%)" offset="0.808594"/><stop stop-opacity="1" stop-color="rgb(16.963196%, 61.69281%, 57.722473%)" offset="0.8125"/><stop stop-opacity="1" stop-color="rgb(16.569519%, 61.997986%, 57.284546%)" offset="0.816406"/><stop stop-opacity="1" stop-color="rgb(16.177368%, 62.304688%, 56.848145%)" offset="0.820313"/><stop stop-opacity="1" stop-color="rgb(15.783691%, 62.609863%, 56.410217%)" offset="0.824219"/><stop stop-opacity="1" stop-color="rgb(15.391541%, 62.916565%, 55.97229%)" offset="0.828125"/><stop stop-opacity="1" stop-color="rgb(14.99939%, 63.221741%, 55.534363%)" offset="0.832031"/><stop stop-opacity="1" stop-color="rgb(14.607239%, 63.526917%, 55.097961%)" offset="0.835938"/><stop stop-opacity="1" stop-color="rgb(14.213562%, 63.832092%, 54.660034%)" offset="0.839844"/><stop stop-opacity="1" stop-color="rgb(13.821411%, 64.138794%, 54.222107%)" offset="0.84375"/><stop stop-opacity="1" stop-color="rgb(13.42926%, 64.44397%, 53.78418%)" offset="0.847656"/><stop stop-opacity="1" stop-color="rgb(13.037109%, 64.749146%, 53.347778%)" offset="0.851563"/><stop stop-opacity="1" stop-color="rgb(12.643433%, 65.054321%, 52.909851%)" offset="0.855469"/><stop stop-opacity="1" stop-color="rgb(12.251282%, 65.361023%, 52.471924%)" offset="0.859375"/><stop stop-opacity="1" stop-color="rgb(11.857605%, 65.666199%, 52.033997%)" offset="0.863281"/><stop stop-opacity="1" stop-color="rgb(11.465454%, 65.9729%, 51.597595%)" offset="0.867188"/><stop stop-opacity="1" stop-color="rgb(11.073303%, 66.278076%, 51.159668%)" offset="0.871094"/><stop stop-opacity="1" stop-color="rgb(10.681152%, 66.583252%, 50.723267%)" offset="0.875"/><stop stop-opacity="1" stop-color="rgb(10.287476%, 66.888428%, 50.285339%)" offset="0.878906"/><stop stop-opacity="1" stop-color="rgb(9.895325%, 67.195129%, 49.847412%)" offset="0.882813"/><stop stop-opacity="1" stop-color="rgb(9.503174%, 67.500305%, 49.409485%)" offset="0.886719"/><stop stop-opacity="1" stop-color="rgb(9.111023%, 67.807007%, 48.973083%)" offset="0.890625"/><stop stop-opacity="1" stop-color="rgb(8.717346%, 68.112183%, 48.535156%)" offset="0.894531"/><stop stop-opacity="1" stop-color="rgb(8.325195%, 68.417358%, 48.097229%)" offset="0.898438"/><stop stop-opacity="1" stop-color="rgb(7.931519%, 68.722534%, 47.659302%)" offset="0.902344"/><stop stop-opacity="1" stop-color="rgb(7.539368%, 69.029236%, 47.2229%)" offset="0.90625"/><stop stop-opacity="1" stop-color="rgb(7.147217%, 69.334412%, 46.784973%)" offset="0.910156"/><stop stop-opacity="1" stop-color="rgb(6.755066%, 69.639587%, 46.347046%)" offset="0.914062"/><stop stop-opacity="1" stop-color="rgb(6.361389%, 69.944763%, 45.909119%)" offset="0.917969"/><stop stop-opacity="1" stop-color="rgb(5.969238%, 70.251465%, 45.472717%)" offset="0.921875"/><stop stop-opacity="1" stop-color="rgb(5.575562%, 70.556641%, 45.03479%)" offset="0.925781"/><stop stop-opacity="1" stop-color="rgb(5.183411%, 70.863342%, 44.596863%)" offset="0.929688"/><stop stop-opacity="1" stop-color="rgb(4.79126%, 71.168518%, 44.158936%)" offset="0.933594"/><stop stop-opacity="1" stop-color="rgb(4.399109%, 71.473694%, 43.722534%)" offset="0.9375"/><stop stop-opacity="1" stop-color="rgb(4.005432%, 71.77887%, 43.284607%)" offset="0.941406"/><stop stop-opacity="1" stop-color="rgb(3.613281%, 72.085571%, 42.84668%)" offset="0.945313"/><stop stop-opacity="1" stop-color="rgb(3.22113%, 72.390747%, 42.408752%)" offset="0.949219"/><stop stop-opacity="1" stop-color="rgb(2.828979%, 72.697449%, 41.972351%)" offset="0.953125"/><stop stop-opacity="1" stop-color="rgb(2.435303%, 73.002625%, 41.534424%)" offset="0.957031"/><stop stop-opacity="1" stop-color="rgb(2.043152%, 73.3078%, 41.096497%)" offset="0.960938"/><stop stop-opacity="1" stop-color="rgb(1.649475%, 73.612976%, 40.658569%)" offset="0.964844"/><stop stop-opacity="1" stop-color="rgb(1.257324%, 73.919678%, 40.222168%)" offset="0.96875"/><stop stop-opacity="1" stop-color="rgb(0.865173%, 74.224854%, 39.784241%)" offset="0.972656"/><stop stop-opacity="1" stop-color="rgb(0.473022%, 74.530029%, 39.346313%)" offset="0.976563"/><stop stop-opacity="1" stop-color="rgb(0.236511%, 74.714661%, 39.082336%)" offset="0.980469"/><stop stop-opacity="1" stop-color="rgb(0%, 74.899292%, 38.819885%)" offset="0.984375"/><stop stop-opacity="1" stop-color="rgb(0%, 74.899292%, 38.819885%)" offset="1"/></linearGradient><clipPath id="c4587a95f1"><rect x="0" width="493" y="0" height="375"/></clipPath><clipPath id="8ae7b2cb1c"><path d="M 0.4375 0 L 493 0 L 493 375 L 0.4375 375 Z M 0.4375 0 " clip-rule="nonzero"/></clipPath><clipPath id="7e66c5d1c0"><rect x="0" width="493" y="0" height="375"/></clipPath><clipPath id="4c75570f68"><rect x="0" width="493" y="0" height="375"/></clipPath><mask id="422ceb858c"><g filter="url(#ae276432fc)"><g><g clip-path="url(#4c75570f68)"><g clip-path="url(#8ae7b2cb1c)"><g><g clip-path="url(#7e66c5d1c0)"><g fill="#000000" fill-opacity="1"><g transform="translate(215.537888, 301.275084)"><g><path d="M 6.109375 0 L 6.109375 -77.1875 L 20.265625 -77.1875 L 20.265625 -45.78125 L 70.859375 -45.78125 L 70.859375 -77.1875 L 85.015625 -77.1875 L 85.015625 0 L 70.859375 0 L 70.859375 -31.40625 L 20.265625 -31.40625 L 20.265625 0 Z M 6.109375 0 "/></g></g></g><g fill="#000000" fill-opacity="1"><g transform="translate(306.768356, 301.275084)"><g><path d="M 20.6875 0 C 17.96875 0 15.484375 -0.675781 13.234375 -2.03125 C 10.984375 -3.394531 9.175781 -5.203125 7.8125 -7.453125 C 6.457031 -9.703125 5.78125 -12.1875 5.78125 -14.90625 L 5.78125 -77.1875 L 19.9375 -77.1875 L 19.9375 -15.546875 C 19.9375 -15.191406 20.0625 -14.890625 20.3125 -14.640625 C 20.5625 -14.390625 20.863281 -14.265625 21.21875 -14.265625 L 67.328125 -14.265625 C 67.679688 -14.265625 68 -14.390625 68.28125 -14.640625 C 68.570312 -14.890625 68.71875 -15.191406 68.71875 -15.546875 L 68.71875 -77.1875 L 82.96875 -77.1875 L 82.96875 -14.90625 C 82.96875 -12.1875 82.289062 -9.703125 80.9375 -7.453125 C 79.582031 -5.203125 77.773438 -3.394531 75.515625 -2.03125 C 73.265625 -0.675781 70.785156 0 68.078125 0 Z M 20.6875 0 "/></g></g></g><g fill="#000000" fill-opacity="1"><g transform="translate(395.533131, 301.275084)"><g><path d="M 6.328125 0 L 6.328125 -77.1875 L 65.5 -77.1875 C 68.21875 -77.1875 70.703125 -76.503906 72.953125 -75.140625 C 75.203125 -73.785156 77.003906 -71.984375 78.359375 -69.734375 C 79.722656 -67.484375 80.40625 -65 80.40625 -62.28125 L 80.40625 -47.171875 C 80.40625 -46.242188 80.332031 -45.347656 80.1875 -44.484375 C 80.039062 -43.628906 79.789062 -42.8125 79.4375 -42.03125 C 80.65625 -40.382812 81.640625 -38.664062 82.390625 -36.875 C 83.140625 -35.09375 83.515625 -33.304688 83.515625 -31.515625 L 83.515625 -14.90625 C 83.515625 -12.1875 82.832031 -9.703125 81.46875 -7.453125 C 80.113281 -5.203125 78.289062 -3.394531 76 -2.03125 C 73.71875 -0.675781 71.21875 0 68.5 0 Z M 21.765625 -14.265625 L 67.859375 -14.265625 C 68.210938 -14.265625 68.53125 -14.390625 68.8125 -14.640625 C 69.101562 -14.890625 69.25 -15.191406 69.25 -15.546875 L 69.25 -30.875 C 69.25 -31.226562 69.101562 -31.53125 68.8125 -31.78125 C 68.53125 -32.03125 68.210938 -32.15625 67.859375 -32.15625 L 21.765625 -32.15625 C 21.398438 -32.15625 21.09375 -32.03125 20.84375 -31.78125 C 20.59375 -31.53125 20.46875 -31.226562 20.46875 -30.875 L 20.46875 -15.546875 C 20.46875 -15.191406 20.59375 -14.890625 20.84375 -14.640625 C 21.09375 -14.390625 21.398438 -14.265625 21.765625 -14.265625 Z M 21.765625 -46.421875 L 64.859375 -46.421875 C 65.210938 -46.421875 65.492188 -46.546875 65.703125 -46.796875 C 65.921875 -47.046875 66.03125 -47.347656 66.03125 -47.703125 L 66.03125 -61.640625 C 66.03125 -61.992188 65.921875 -62.296875 65.703125 -62.546875 C 65.492188 -62.796875 65.210938 -62.921875 64.859375 -62.921875 L 21.765625 -62.921875 C 21.398438 -62.921875 21.09375 -62.796875 20.84375 -62.546875 C 20.59375 -62.296875 20.46875 -61.992188 20.46875 -61.640625 L 20.46875 -47.703125 C 20.46875 -47.347656 20.59375 -47.046875 20.84375 -46.796875 C 21.09375 -46.546875 21.398438 -46.421875 21.765625 -46.421875 Z M 21.765625 -46.421875 "/></g></g></g></g></g></g></g></g></g></mask><clipPath id="227c09b631"><path d="M 0.441406 0 L 493 0 L 493 375 L 0.441406 375 Z M 0.441406 0 " clip-rule="nonzero"/></clipPath><clipPath id="8e2caf2515"><rect x="0" width="493" y="0" height="375"/></clipPath><clipPath id="cbb6b001bb"><rect x="0" width="493" y="0" height="375"/></clipPath><clipPath id="c5522cc821"><rect x="0" width="493" y="0" height="375"/></clipPath></defs><g transform="matrix(1, 0, 0, 1, 0, 0)"><g clip-path="url(#54b4bf5dcd)"><g fill="#2b2b2b" fill-opacity="1"><g transform="translate(-10.608576, 207.502979)"><g><path d="M 13.125 0 L 13.125 -141.046875 L 127.421875 -141.046875 C 132.773438 -141.046875 137.679688 -139.707031 142.140625 -137.03125 C 146.597656 -134.351562 150.160156 -130.785156 152.828125 -126.328125 C 155.503906 -121.867188 156.84375 -116.960938 156.84375 -111.609375 L 156.84375 0 L 136.90625 0 L 136.90625 -111.609375 C 136.90625 -114.203125 135.972656 -116.429688 134.109375 -118.296875 C 132.242188 -120.160156 130.015625 -121.09375 127.421875 -121.09375 L 42.796875 -121.09375 C 40.203125 -121.09375 37.929688 -120.160156 35.984375 -118.296875 C 34.046875 -116.429688 33.078125 -114.203125 33.078125 -111.609375 L 33.078125 0 Z M 13.125 0 "/></g></g></g><g fill="#2b2b2b" fill-opacity="1"><g transform="translate(130.66862, 207.502979)"><g><path d="M 41.828125 0 C 36.472656 0 31.566406 -1.335938 27.109375 -4.015625 C 22.648438 -6.691406 19.082031 -10.257812 16.40625 -14.71875 C 13.738281 -19.175781 12.40625 -24.078125 12.40625 -29.421875 L 12.40625 -111.609375 C 12.40625 -116.960938 13.738281 -121.867188 16.40625 -126.328125 C 19.082031 -130.785156 22.648438 -134.351562 27.109375 -137.03125 C 31.566406 -139.707031 36.472656 -141.046875 41.828125 -141.046875 L 126.453125 -141.046875 C 131.960938 -141.046875 136.945312 -139.707031 141.40625 -137.03125 C 145.863281 -134.351562 149.425781 -130.785156 152.09375 -126.328125 C 154.769531 -121.867188 156.109375 -116.960938 156.109375 -111.609375 L 156.109375 -60.546875 L 32.34375 -60.546875 L 32.34375 -29.421875 C 32.34375 -26.828125 33.273438 -24.597656 35.140625 -22.734375 C 37.003906 -20.867188 39.234375 -19.9375 41.828125 -19.9375 L 156.109375 -19.9375 L 156.109375 0 Z M 32.34375 -80.484375 L 135.9375 -80.484375 L 135.9375 -111.609375 C 135.9375 -114.203125 135.003906 -116.429688 133.140625 -118.296875 C 131.273438 -120.160156 129.046875 -121.09375 126.453125 -121.09375 L 41.828125 -121.09375 C 39.234375 -121.09375 37.003906 -120.160156 35.140625 -118.296875 C 33.273438 -116.429688 32.34375 -114.203125 32.34375 -111.609375 Z M 32.34375 -80.484375 "/></g></g></g><g fill="#2b2b2b" fill-opacity="1"><g transform="translate(269.75729, 207.502979)"><g><path d="M 12.640625 0 L 12.640625 -111.609375 C 12.640625 -116.960938 13.976562 -121.867188 16.65625 -126.328125 C 19.332031 -130.785156 22.898438 -134.351562 27.359375 -137.03125 C 31.816406 -139.707031 36.71875 -141.046875 42.0625 -141.046875 L 121.34375 -141.046875 L 121.34375 -121.09375 L 42.0625 -121.09375 C 39.46875 -121.09375 37.238281 -120.160156 35.375 -118.296875 C 33.507812 -116.429688 32.578125 -114.203125 32.578125 -111.609375 L 32.578125 0 Z M 12.640625 0 "/></g></g></g><g fill="#2b2b2b" fill-opacity="1"><g transform="translate(366.291889, 207.502979)"><g><path d="M 12.640625 0 L 12.640625 -111.609375 C 12.640625 -116.960938 13.976562 -121.867188 16.65625 -126.328125 C 19.332031 -130.785156 22.898438 -134.351562 27.359375 -137.03125 C 31.816406 -139.707031 36.71875 -141.046875 42.0625 -141.046875 L 121.34375 -141.046875 L 121.34375 -121.09375 L 42.0625 -121.09375 C 39.46875 -121.09375 37.238281 -120.160156 35.375 -118.296875 C 33.507812 -116.429688 32.578125 -114.203125 32.578125 -111.609375 L 32.578125 0 Z M 12.640625 0 "/></g></g></g><g fill="#2b2b2b" fill-opacity="1"><g transform="translate(462.826534, 207.502979)"><g><path d="M 42.0625 0 C 36.71875 0 31.816406 -1.335938 27.359375 -4.015625 C 22.898438 -6.691406 19.332031 -10.257812 16.65625 -14.71875 C 13.976562 -19.175781 12.640625 -24.078125 12.640625 -29.421875 L 12.640625 -80.484375 L 136.171875 -80.484375 L 136.171875 -111.609375 C 136.171875 -114.203125 135.238281 -116.429688 133.375 -118.296875 C 131.507812 -120.160156 129.28125 -121.09375 126.6875 -121.09375 L 12.640625 -121.09375 L 12.640625 -141.046875 L 126.6875 -141.046875 C 132.195312 -141.046875 137.179688 -139.707031 141.640625 -137.03125 C 146.097656 -134.351562 149.664062 -130.785156 152.34375 -126.328125 C 155.019531 -121.867188 156.359375 -116.960938 156.359375 -111.609375 L 156.359375 0 Z M 42.0625 -19.9375 L 136.171875 -19.9375 L 136.171875 -60.546875 L 32.578125 -60.546875 L 32.578125 -29.421875 C 32.578125 -26.828125 33.507812 -24.597656 35.375 -22.734375 C 37.238281 -20.867188 39.46875 -19.9375 42.0625 -19.9375 Z M 42.0625 -19.9375 "/></g></g></g></g></g><g transform="matrix(1, 0, 0, 1, 257, 0)"><g clip-path="url(#c5522cc821)"><g clip-path="url(#cd95a2d5ae)"><g><g clip-path="url(#cbb6b001bb)"><g clip-path="url(#fdd7e2bc99)"><g mask="url(#422ceb858c)"><g><g clip-path="url(#8e2caf2515)"><g clip-path="url(#227c09b631)"><path fill="url(#5c80cdd350)" d="M 0.441406 0 L 0.441406 375 L 493 375 L 493 0 Z M 0.441406 0 " fill-rule="nonzero"/></g></g></g></g></g></g></g></g></g></g></svg>
